<?xml version="1.0" encoding="UTF-8"?>
<svg xmlns="http://www.w3.org/2000/svg" id="Layer_1" viewBox="0 0 313.57 107.02">
  <defs>
    <style>.cls-1{fill:#fff;}</style>
  </defs>
  <path class="cls-1" d="m.03,11.49c0-3.21,0-6.34,0-9.47,0-.39.04-.79-.01-1.18C-.06.23.11.04.78.04c18.41.02,36.82.02,55.23.02.27,0,.53,0,.81,0v11.44H.03Z"></path>
  <path class="cls-1" d="m139.17.09v11.38h-56.62V.09h56.62Z"></path>
  <path class="cls-1" d="m161.1,11.52V.05c.26,0,.49,0,.71,0,11.64,0,23.29-.04,34.93.02,5.75.03,11.19,1.42,16.11,4.41,5.25,3.19,8.44,7.86,9.67,13.88,1.15,5.63.57,11.07-1.76,16.29-1.21,2.72-3.15,4.93-5.39,6.92-2.46,2.18-5.44,3.32-8.39,4.54-.75.31-1.5.63-2.3.97,6.92,9.61,13.75,19.1,20.59,28.61.04-.03,0,.03-.04.03-4.81-.03-9.62-.07-14.43-.09-.61,0-.99-.24-1.33-.73-2.03-2.91-4.09-5.8-6.13-8.7-1.67-2.38-3.3-4.78-4.98-7.15-2.01-2.83-4.05-5.63-6.07-8.44-.1-.13-.23-.26-.29-.41-.35-.9-1.04-1.04-1.93-1.03-4.94.03-9.87,0-14.81.01-1.37,0-1.37.01-1.37,1.36,0,8.24,0,16.47,0,24.71,0,.12-.03.24-.06.4-.64,0-1.26,0-1.88,0-3.5,0-7,.01-10.5,0-.14,0-.4-.22-.4-.34-.01-5.56,0-11.11.01-16.67,0-6.55,0-13.11,0-19.66,0-1.07,0-1.11,1.1-1.14,2.06-.04,4.12-.04,6.19-.04,8.17,0,16.33-.05,24.5.03,2.48.02,4.91-.2,7.29-.82,3.24-.84,5.94-2.56,7.9-5.32,1.14-1.6,1.7-3.4,1.89-5.33.25-2.45.04-4.86-.88-7.16-1.19-2.97-3.54-4.8-6.38-6.07-2.77-1.24-5.73-1.58-8.72-1.59-10.71-.03-21.41-.01-32.12-.02-.23,0-.45,0-.75,0Z"></path>
  <path class="cls-1" d="m270,0c0,1.69,0,3.2,0,4.71,0,2.01-.02,4.02.02,6.04,0,.58-.14.8-.75.93-2.22.49-4.21,1.53-6.15,2.68-5.88,3.47-9.61,8.59-11.45,15.08-1.23,4.32-1.48,8.73-.74,13.18.82,4.9,2.61,9.38,5.86,13.2,3.42,4.01,7.66,6.77,12.8,8.11.16.04.34.26.39.43.07.25.03.53.03.8,0,3.32.01,6.64.02,9.96,0,.12-.03.24-.07.48-1.2-.2-2.37-.33-3.51-.6-8.34-1.98-15.23-6.32-20.66-12.91-2.57-3.12-4.25-6.74-5.67-10.51-1.47-3.9-2.13-7.89-2.27-12.03-.15-4.28.18-8.5,1.41-12.61,1.51-5.04,3.7-9.78,7.08-13.87,2.23-2.7,4.86-4.98,7.77-6.96,3.48-2.37,7.27-4.01,11.27-5.19,1.48-.43,3.03-.6,4.63-.9Z"></path>
  <path class="cls-1" d="m281.77,75.53c0-3.68.01-7.26-.01-10.84,0-.61.32-.76.8-.9,5.18-1.54,9.52-4.33,12.75-8.68,1.11-1.49,2.15-3.07,2.95-4.74,1.49-3.11,2.23-6.44,2.51-9.88.23-2.75.13-5.48-.39-8.17-.56-2.94-1.35-5.83-2.88-8.43-2.16-3.67-4.86-6.85-8.61-9.07-2.12-1.25-4.33-2.29-6.66-3.09-.29-.1-.49-.19-.49-.59.02-3.51.02-7.01.02-10.52,0-.12.02-.24.04-.52.97.12,1.93.15,2.84.37,4.97,1.16,9.61,3.16,13.75,6.12,3.9,2.78,7.03,6.31,9.54,10.4,2.61,4.24,4.46,8.78,5.21,13.67.43,2.83.36,5.74.42,8.62.05,2.51-.15,5.01-.78,7.46-.78,3.02-1.78,5.97-3.16,8.75-1.45,2.92-3.33,5.58-5.46,8.08-2.71,3.17-5.93,5.74-9.58,7.68-3.31,1.76-6.78,3.26-10.5,4.02-.76.16-1.55.17-2.32.25Z"></path>
  <path class="cls-1" d="m.06,75.57V31.84h51.04c0,.39,0,.76,0,1.12,0,3.24.01,6.47.04,9.71,0,.39-.13.53-.48.54-.31,0-.62.03-.94.03-12.08,0-24.16,0-36.25,0-1.85,0-1.87,0-1.87,1.82,0,9.77,0,19.54,0,29.31,0,1.25.01,1.28-1.29,1.28-3.37,0-6.75,0-10.12,0-.04,0-.07-.03-.15-.07Z"></path>
  <path class="cls-1" d="m139.03,75.61h-56.52c0-.29,0-.55,0-.81,0-3.15,0-6.31,0-9.46,0-1.19,0-1.21,1.22-1.22,9.66-.02,19.33-.02,28.99-.03,8,0,16,0,24-.01.76,0,1.53,0,2.3,0v11.53Z"></path>
  <path class="cls-1" d="m133.57,31.74c0,3.77,0,7.36.01,10.94,0,.36-.13.49-.45.51-.29.02-.58.04-.87.04-16,0-31.99,0-47.99,0-.56,0-1.31.16-1.61-.13-.29-.28-.14-1.04-.15-1.59-.02-3.07-.01-6.14-.04-9.21,0-.4.16-.5.51-.51.87,0,1.75-.03,2.62-.03,15.16,0,30.32-.01,45.49-.02.81,0,1.61,0,2.47,0Z"></path>
  <path class="cls-1" d="m60.43,100.99c.21-.44.48-.86.64-1.32.92-2.69,1.8-5.38,2.72-8.07.06-.18.33-.4.51-.41,1.33-.03,2.66-.02,4-.02.44,5.23.87,10.42,1.32,15.7h-2.78c-.3-3.69-.6-7.31-.89-10.94-.3-.06-.6-.16-.89-.15-.15,0-.37.18-.42.33-.21.58-.35,1.19-.55,1.78-.82,2.48-1.66,4.95-2.48,7.42-.09.27-.18.55-.26.83-.19.74-1.33,1.12-1.95.64-.07-.06-.13-.16-.16-.25-1.06-3.14-2.16-6.26-3.15-9.43-.25-.82-.62-1.4-1.49-1.87-.35,3.87-.69,7.68-1.04,11.61h-2.69c.25-3.05.5-6.06.74-9.06.17-2.04.35-4.09.51-6.13.03-.37.15-.5.52-.5.98.02,1.96,0,2.94.01.86.02,1.03.17,1.3.97.9,2.64,1.82,5.29,2.75,7.92.12.33.35.62.53.93.09,0,.17,0,.26-.01Z"></path>
  <path class="cls-1" d="m206.03,91.17c0,.8,0,1.52,0,2.25,0,4.33,0,8.67.03,13,0,.38-.13.53-.5.53-.46,0-.92-.04-1.37.02-1.19.18-1.94-.29-2.51-1.32-.68-1.23-1.49-2.39-2.23-3.59-1.13-1.84-2.21-3.7-3.39-5.5-.23-.36-.82-.49-1.33-.78v11.12h-2.86c0-.77,0-1.47,0-2.17-.01-1.68-.05-3.36-.04-5.04,0-2.65.04-5.31.06-7.96,0-.43.18-.59.61-.56.39.03.8.05,1.19,0,1.26-.18,2.05.34,2.65,1.45.74,1.36,1.68,2.61,2.5,3.93,1.09,1.74,2.15,3.49,3.24,5.22.15.24.44.42.71.54.08.04.42-.21.42-.33,0-1.63-.04-3.27-.06-4.9-.02-1.76,0-3.53-.03-5.29,0-.45.09-.64.58-.62.76.03,1.53,0,2.33,0Z"></path>
  <path class="cls-1" d="m104.04,91.19c0,4.89,0,9.7,0,14.51,0,1.26.01,1.17-1.26,1.29-1.66.16-2.73-.36-3.31-1.99-.31-.86-.95-1.6-1.44-2.39-1.21-1.95-2.42-3.91-3.63-5.86-.1-.16-.18-.36-.33-.44-.27-.16-.58-.24-.87-.36-.1.25-.28.5-.28.75-.01,3.21,0,6.43.02,9.64,0,.45-.08.65-.57.63-.64-.04-1.29,0-1.93-.04-.13,0-.34-.25-.34-.39-.01-4.89,0-9.79-.02-14.68,0-.52.13-.71.66-.68.79.04,1.59-.01,2.37.06.28.03.63.24.78.48,1.58,2.44,3.12,4.89,4.67,7.35.5.79.95,1.6,1.45,2.39.14.22.34.43.56.56.48.29.87.09.88-.48.03-1.82.03-3.65.03-5.47,0-1.43,0-2.86-.03-4.29,0-.38.13-.56.47-.57.68-.02,1.37,0,2.11,0Z"></path>
  <path class="cls-1" d="m30.44,107.01c-.88-.04-1.69-.04-2.49-.13-.24-.03-.53-.3-.64-.53-.31-.69-.47-1.45-.84-2.1-.18-.31-.69-.59-1.06-.6-1.91-.06-3.83-.06-5.75,0-.31,0-.76.31-.9.59-.33.69-.49,1.45-.76,2.16-.07.19-.26.46-.4.46-.88.04-1.76.02-2.65.02,1.29-3.44,2.57-6.84,3.84-10.24.62-1.65,1.23-3.3,1.8-4.96.13-.39.31-.53.7-.52.79.02,1.58.02,2.37,0,.47,0,.81.14.98.59.11.29.26.56.37.85,1.63,4.39,3.25,8.78,4.88,13.17.15.4.34.78.53,1.23Zm-5.05-5.85c-.5-1.57-.99-3.06-1.44-4.57-.28-.93-.5-1.86-1.77-2.15-.74,2.2-1.49,4.44-2.28,6.75,1.91.27,3.71.27,5.49-.03Z"></path>
  <path class="cls-1" d="m142.97,94.72c-.88.19-1.7.37-2.52.52-.13.02-.41-.14-.42-.24-.12-1.16-1.05-1.51-1.92-1.66-.85-.15-1.78-.04-2.64.13-.68.14-1,.77-1.07,1.46-.07.72,0,1.4.76,1.74.95.42,1.91.81,2.86,1.21.99.42,2.04.75,2.98,1.27,1.79.99,2.43,2.83,1.8,4.79-.56,1.75-1.69,2.86-3.59,2.94-1.39.06-2.81.15-4.17-.06-1.86-.29-3.29-1.33-4.02-3.17-.19-.47-.14-.72.43-.82.61-.11,1.21-.32,1.81-.45.29-.07.53-.04.67.35.43,1.2,1.37,1.89,2.58,2.1,1.27.22,2.51.13,3.34-1.1.52-.76.4-1.81-.31-2.41-.93-.79-2.04-1.19-3.2-1.45-1.44-.32-2.74-.91-3.91-1.83-1.54-1.21-1.44-4.42.13-5.61,2.02-1.52,4.28-1.69,6.64-1.06,1.55.41,2.81,1.24,3.53,2.73.07.14.11.3.23.62Z"></path>
  <path class="cls-1" d="m162.8,95.47c-.78.29-1.39.49-1.99.74-.42.17-.71.11-.93-.3-1.35-2.48-4.55-2.93-6.71-1.99-1.27.55-2.14,1.59-2.64,2.86-.68,1.76-.63,3.58.29,5.23,1.22,2.18,4.75,3.65,7.8,1.55.48-.33.87-.81,1.23-1.28.24-.32.47-.45.83-.32.71.24,1.41.48,2.27.77-.74.87-1.45,1.69-2.16,2.51-1.26,1.46-2.96,1.72-4.75,1.74-1.48.02-2.93.04-4.33-.63-2.61-1.25-3.78-3.42-4.19-6.13-.35-2.31.37-4.39,1.52-6.34.7-1.19,1.94-1.75,3.17-2.2,3.38-1.21,6.48-.68,9.16,1.74.59.53.93,1.33,1.43,2.06Z"></path>
  <path class="cls-1" d="m226.71,95.47c-.79.3-1.45.54-2.09.8-.51.21-.71-.15-.86-.48-.62-1.41-1.88-1.95-3.23-2.22-1.83-.36-3.52,0-4.88,1.39-.71.73-1.24,1.57-1.4,2.58-.23,1.56-.28,3.11.56,4.53,1.29,2.18,4.35,3.08,6.81,1.98.91-.41,1.78-.88,2.3-1.83.1-.19.58-.31.83-.25.68.17,1.33.45,2.03.7-1.5,2.37-3.24,4.37-6.4,4.28-.58-.02-1.17.01-1.75,0-3.9-.02-6.75-2.93-7.12-6.79-.16-1.67.04-3.27.73-4.85.98-2.24,2.71-3.48,4.99-4.01,3.06-.71,5.84-.05,8.14,2.13.56.53.88,1.31,1.33,2.01Z"></path>
  <path class="cls-1" d="m231.78,106.96v-15.73h9.02v2.33c-.82,0-1.65-.01-2.47,0-.91.02-1.83.06-2.74.08-.45,0-.66.28-.68.66-.03.97-.03,1.94-.03,2.92,0,.46.36.52.7.53.96.03,1.92.04,2.87.04q1.57,0,1.59,1.56c0,.29,0,.57,0,1-.92,0-1.81,0-2.7,0-.65,0-1.29.01-1.94.04-.36.01-.56.17-.56.58.02,1.09,0,2.19,0,3.42.78,0,1.52,0,2.27,0,1.04.01,2.08.06,3.12.06.52,0,.64.24.57.71-.05.3-.03.62-.02.93,0,.82.01.84-.85.85-2.71.01-5.41,0-8.17,0Z"></path>
  <path class="cls-1" d="m.03,99.01c0-2.43,0-4.85,0-7.28,0-.45.16-.58.58-.57,2.06.05,4.12.06,6.18.12,3.78.11,5.21,3.62,4.35,6.57-.65,2.24-2.23,3.04-4.38,3.13-1.04.04-2.08.11-3.12.14-.47.01-.69.18-.69.66,0,1.49-.05,2.99-.01,4.48.01.57-.18.73-.71.7-.58-.03-1.17-.05-1.75-.02-.38.02-.46-.12-.45-.47.02-1.24.01-2.49.02-3.73,0-1.24,0-2.49,0-3.73,0,0,0,0,0,0Zm2.91-3.03s.02,0,.02,0c0,.77,0,1.53,0,2.3,0,.36.18.51.54.51.87,0,1.74.03,2.62,0,2.45-.09,3.22-2.12,2.44-4.05-.13-.33-.46-.65-.77-.81-1.44-.76-2.99-.55-4.52-.4-.12.01-.3.3-.31.48-.04.66-.01,1.32-.01,1.99Z"></path>
  <path class="cls-1" d="m84.38,91.22c0,.68.02,1.3-.02,1.92,0,.13-.27.33-.42.34-1.31.04-2.62.05-3.93.07-1.59.02-1.64.06-1.68,1.64-.02.62.04,1.24.03,1.86,0,.52.29.69.74.7,1.04.02,2.08.02,3.12.04,1.39.03,1.39.03,1.4,1.38,0,.35,0,.7,0,1.18-.92,0-1.79,0-2.66,0-.67,0-1.33,0-2,.03-.44.02-.68.2-.65.7.05.89.07,1.78.06,2.67,0,.44.19.59.59.59,1.23,0,2.46.02,3.68.03,1.75.01,1.72,0,1.76,1.76.02.63-.14.83-.78.82-2.58-.03-5.16-.02-7.75,0-.38,0-.38-.2-.38-.48.01-4.42.02-8.83.02-13.25,0-.5,0-1-.02-1.49-.02-.38.09-.57.52-.57,2.69.01,5.37,0,8.06.01.08,0,.16.03.28.05Z"></path>
  <path class="cls-1" d="m186.09,104.39v2.49c-2.91.17-5.84.07-8.69.04,0-4.46,0-8.82,0-13.19,0-.66,0-1.33-.03-1.99-.01-.34.04-.57.45-.57,2.69,0,5.37,0,8.06.02.06,0,.11.04.2.07,0,.64.03,1.27-.02,1.9-.01.13-.33.33-.51.34-1.23.04-2.46.04-3.68.05-1.6.01-1.76.16-1.75,1.74,0,.52,0,1.04.02,1.55.01.6.32.91.93.92,1.35.02,2.7.04,4.06.06.1,0,.2.01.35.02v2.54h-5.32c0,1.24.01,2.29,0,3.34,0,.47.24.62.65.62,1.17.01,2.33.02,3.5.03.58,0,1.15,0,1.8,0Z"></path>
  <path class="cls-1" d="m46.67,91.24c-1.45,2.24-2.83,4.45-4.28,6.61-.58.86-.89,1.74-.86,2.78.04,2.05.01,4.1.01,6.28-.84,0-1.76,0-2.68-.02-.07,0-.19-.28-.19-.43,0-1.93-.01-3.86.03-5.78.02-1.04-.31-1.91-.9-2.77-1.06-1.53-2.01-3.14-3.02-4.71-.38-.6-.79-1.19-1.24-1.86,1-.22,1.95-.23,2.91-.04.13.02.25.21.33.34.76,1.28,1.51,2.57,2.28,3.84.63,1.04,1.47,1.03,2.06-.03.5-.89.98-1.78,1.47-2.67.78-1.42,1.35-1.72,2.98-1.54.34.04.69,0,1.1,0Z"></path>
  <path class="cls-1" d="m119.62,91.17c0,.68-.02,1.28,0,1.88.02.37-.15.46-.48.47-.85.02-1.7.06-2.56.1-.59.03-.85.34-.86.92,0,1.33-.03,2.65-.03,3.98,0,2.32.02,4.64.03,6.97,0,.43,0,.86,0,1.39h-2.8c.03-.47.07-.83.07-1.2,0-3.63,0-7.26,0-10.88,0-1.09-.01-1.09-1.12-1.13-.79-.03-1.58-.05-2.37-.12-.14-.01-.36-.25-.37-.4-.05-.51-.06-1.04-.01-1.55.01-.15.24-.4.38-.4,3.37-.02,6.74-.02,10.12-.02Z"></path>
  <path class="cls-1" d="m167.93,106.92c0-1.15,0-2.23,0-3.3,0-3.94-.01-7.88-.03-11.82,0-.44.11-.65.59-.64.75.03,1.49,0,2.29,0,0,.37,0,.69,0,1.01.01,4.77.03,9.54.03,14.3,0,.15-.17.41-.27.42-.87.03-1.73.02-2.6.02Z"></path>
</svg>
